<?xml version="1.0" encoding="utf-8"?>
<!-- Generator: Adobe Illustrator 21.0.0, SVG Export Plug-In . SVG Version: 6.00 Build 0)  -->
<svg version="1.1" id="Calque_1" xmlns="http://www.w3.org/2000/svg" xmlns:xlink="http://www.w3.org/1999/xlink" x="0px" y="0px"
	 viewBox="0 0 171.2 62.7" style="enable-background:new 0 0 171.2 62.7;" xml:space="preserve">
<style type="text/css">
	.st0{fill:#004D7E;}
	.st1{fill:#A4CA61;}
	.st2{fill:#FFFFFF;}
</style>
<g>
	<g>
		<rect class="st0" width="171.2" height="46.4"/>
		<g>
			<g>
				<path class="st1" d="M56.7,11.5c-3.8-1.8-5.5-2.3-7-2.6C48,8.5,44.6,8.3,40.4,10c-0.9,0.3-4.6,2.5-4.6,2.5s-0.1-0.6-0.2-1.2
					c-0.2-1.4,0.4-1.8,1.1-2.1c0.1,0,0.1-0.1,0.1-0.1s-1-0.9-2.3-1.3c-0.4-0.1-1.2,0.1-2,0.6c-0.6,0.4-1.6,2.1-1.8,2.4
					c-0.2,0.3-1.3,2.5-1.3,2.5s-2.3-0.9-3-1.1c-0.7-0.3-3.2-1.3-4.1-1.6c-1-0.3-2.7-0.5-4.1-0.5c-1.4-0.1-4.2,0.8-5.2,1.3
					c-1,0.4-2.2,1.2-2.9,1.6c-2.3,1.4-3.6,2.8-3.6,2.8s0.1,0.1,0.4,0.1c0.3,0,1.4-0.1,1.9-0.6c0.1-0.1,1.5-1.1,1.8-1.3
					c0.6-0.3,1.6-0.9,2.6-1.2c0.4-0.1,2.6-0.6,5.1-0.4c0.8,0.1,3,0.6,5.2,1.5c0.5,0.2,3,1.3,3.3,1.4c1.1,0.4,2.9,0.8,3.5,0.9
					c1.3,0.2,3.5,0.2,3.7,0.2c0.4,0,0.3,0.1,0.5,1.5c0,0.4,1.4,5.5-1.9,10.1c-0.5,0.7-1.1,1.3-1.4,1.7c-0.1,0.2,0.1,0.2,0.1,0.2
					s1.7-0.6,2.3-1.1c1.3-1,1.7-2.1,2-2.6c2.8-4.6,1-10.5,1-10.5s0.1-0.2,0.5-0.5c0.4-0.2,0.8-0.5,1.2-0.8c2-1.3,3.9-2.2,5.2-2.7
					c1.8-0.6,3.7-1.4,7.1-0.7c0.3,0.1,2.7,0.6,3.1,0.7c1.1,0.3,2,0.6,3.3,1.1c0.9,0.3,2.4,0.8,3.1,0.9c0.3,0.1,0.5-0.1,0.5-0.1
					S60.3,13.2,56.7,11.5 M34.8,9.1c-0.2,0.1-0.6,0.4-0.8,0.9c-0.2,0.4-0.1,1.4-0.1,1.7c0,0.3,0,0.5,0.1,0.8c0.1,0.3-0.1,1.4-1,1.4
					c-0.3,0-0.7-0.1-1-0.1c-0.3,0-0.5-0.1-0.7-0.1c-0.5-0.1-0.3-0.4-0.3-0.4s0.8-3.1,2-4.3c0.2-0.2,0.6-0.6,1.1-0.5
					c0.3,0.1,0.6,0.2,0.9,0.3C35.3,9,35,9,34.8,9.1"/>
				<path class="st1" d="M14.4,21.6c0,0,1.1-0.3,1.6-0.7c1.1-0.7,1.3-1.5,1.5-1.7c0.3-0.4,0.6-0.8,0.9-1.1c0.2-0.3,1.3-1.6,1.6-1.8
					c0.3-0.2,0.7-0.4,1-0.6c0.3-0.2,0.5-0.2,0.8-0.3c0.2-0.1,0.4-0.5,0.6-0.5c0.2-0.1,0.4-0.3,0.4-0.3s0.2-0.1,0.1,0.1
					c0,0.3-0.1,1.1-0.4,2.3c-0.1,0.6-0.5,1.5-0.7,1.7c-0.2,0.2-0.8,1.3-1.3,1.6c-0.3,0.2-1,0.9-1.2,1.1c-0.2,0.1-1.1,0.8-1.5,0.9
					c-0.3,0.1-1.9,0.6-3.3-0.5C14.3,21.7,14.4,21.6,14.4,21.6"/>
				<path class="st1" d="M28.2,16.9c0,0,0.6,0.3,0.6,0.5c0.1,0.2,0,0.6,0,0.6l0,0.8l0.1,0.8c0,0-0.1,0.6-0.1,0.8
					c0,0.2-0.3,1.3-0.6,1.9c-0.2,0.5-1,1.7-1.3,1.9c-0.5,0.5-1.6,2.1-4.3,1.7c-1-0.2-1.8-0.8-2-1c-0.1-0.1,0-0.2,0-0.2
					s1.1-0.1,1.8-0.5c0.9-0.6,2-2.8,2.3-3.5c0.2-0.5,0.8-1.4,1-1.9C26.5,17.2,28.2,16.9,28.2,16.9"/>
				<path class="st1" d="M29.1,30.1c-0.3-0.2-2.8-0.2-2.8-0.2l-0.6,0.5c0,0-0.4,0.4-0.6,0.5c-0.2,0.2-0.6,0.4-0.6,0.7
					c0,0.3,0.1,0.8,0.1,0.8s1.5-0.9,2-1.1C28.2,30.7,29.2,30.2,29.1,30.1"/>
				<path class="st1" d="M29.6,30.8c0.3,0.1-1.3,6.4-1.5,6.4c-0.2,0-0.7-0.2-0.7-0.2s-0.6-0.3-0.6-0.5c0,0,0-2.3,0-2.6
					c0-0.3,0.1-0.8,0.3-1C27.2,32.7,29.3,30.7,29.6,30.8"/>
				<path class="st1" d="M33.1,30.6c0.3-0.1,1.8,3.3,2,3.5c0.7,0.8,2.1,1.8,2.2,1.9c0,0.1-0.4,0.4-0.6,0.4c-0.6,0-1.3,0.4-1.3,0.4
					s-0.7-0.1-0.9-0.2c-0.2-0.1-0.6-0.6-0.8-0.8c-0.2-0.2-0.8-0.8-0.8-0.8S32.7,30.7,33.1,30.6"/>
				<path class="st1" d="M31,30.8c0.2-0.1,0.5,0.5,0.5,1.4c0,0.4,0.2,2,0.2,2.4c0,0.4,0,1.2,0.6,2.1c0.2,0.4,0.5,1,0.6,1.2
					c0.1,0.2,0.2,0.8,0.2,0.8s-1.4,0.3-1.7-0.2c-0.4-0.5-1.1-1.2-1.2-1.7c-0.3-1.1-0.1-3,0-3.4C30.3,32.9,30.8,30.8,31,30.8"/>
				<path class="st1" d="M58.4,16.1c0,0,0.1-0.3-0.7-0.3c-0.2,0-0.8,0-0.8,0s-0.5-0.2-0.9-0.4c-0.3-0.2-1.1-0.8-1.4-1
					c-0.3-0.2-0.8-0.5-1-0.6c-0.2-0.1-1.1-0.6-1.3-0.6c-0.2-0.1-1.4-0.5-1.4-0.5l-0.3,0.2c0,0,0.2,0.3,0.2,0.5
					c-0.1,0.2,0,0.7-0.1,0.8c-0.1,0.2-0.2,0.5-0.2,0.8c0,0.2,0.2,0.5,0.4,0.6c0.3,0.1,1,0.4,1.2,0.5c0.2,0.1,1.1,0.5,1.3,0.6
					c0.2,0.1,1.1,0.4,1.5,0.5c0.5,0.2,1.1,0.1,1.4,0.1c0.3-0.1,0.7-0.1,0.9-0.2C57.9,16.5,58.4,16.1,58.4,16.1"/>
				<path class="st1" d="M53.3,20.1c0,0-1.1-0.2-1.6-0.6c-1.1-0.7-1.4-1.4-1.6-1.6c-0.3-0.3-0.7-0.7-0.9-1.1
					c-0.2-0.2-1.4-1.5-1.7-1.7c-0.3-0.2-0.7-0.4-1-0.5c-0.3-0.2-0.5-0.2-0.8-0.3c-0.2,0-0.4-0.4-0.6-0.5c-0.2-0.1-0.4-0.3-0.4-0.3
					s-0.2-0.1-0.1,0.1c0.1,0.3,0.2,1.1,0.6,2.3c0.2,0.6,0.6,1.5,0.8,1.7c0.2,0.2,0.8,1.3,1.4,1.5c0.3,0.1,1,0.8,1.3,1
					c0.2,0.1,1.2,0.7,1.5,0.8c0.3,0,2,0.5,3.3-0.7C53.3,20.3,53.3,20.1,53.3,20.1"/>
				<path class="st1" d="M39.9,16.1c0,0-0.6,0.4-0.6,0.6c0,0.2,0,0.6,0,0.6l0.1,0.8l-0.1,0.8c0,0,0.1,0.6,0.2,0.8
					c0.1,0.2,0.4,1.3,0.7,1.9c0.2,0.5,1.1,1.6,1.4,1.8c0.6,0.4,1.7,2,4.4,1.4c1-0.2,1.7-1,1.9-1.1c0.1-0.1,0-0.2,0-0.2
					s-1.1,0-1.8-0.4c-1-0.5-2.2-2.6-2.5-3.3c-0.2-0.5-0.9-1.3-1.1-1.8C41.7,16.3,39.9,16.1,39.9,16.1"/>
			</g>
			<path class="st1" d="M9.3,17.9c0,0-0.1-0.2,0.7-0.3c0.2,0,0.8-0.1,0.8-0.1s0.5-0.2,0.9-0.5c0.3-0.2,1.1-0.9,1.3-1.1
				c0.3-0.2,0.8-0.6,0.9-0.6c0.2-0.1,1-0.7,1.2-0.7c0.2-0.1,1.4-0.6,1.4-0.6l0.3,0.1c0,0-0.2,0.3-0.1,0.5c0.1,0.2,0.1,0.7,0.2,0.8
				c0.1,0.2,0.2,0.5,0.2,0.7c0,0.2-0.2,0.6-0.4,0.7c-0.3,0.1-1,0.5-1.2,0.6c-0.2,0.1-1.1,0.6-1.3,0.7c-0.2,0.1-1.1,0.5-1.4,0.6
				c-0.5,0.2-1.1,0.2-1.4,0.2c-0.3,0-0.7-0.1-0.9-0.2C9.8,18.3,9.3,17.9,9.3,17.9"/>
		</g>
		<g>
			<g>
				<path class="st2" d="M83.4,25.6c0.6,0.2,1.1,0.6,1.6,1.2c0.4,0.5,0.6,1,0.8,1.7c0.1,0.5,0.1,1.1,0.1,2l0,8.5h-3.6v-8.6
					c0-0.5-0.1-0.9-0.2-1.3c-0.3-0.6-0.9-0.9-1.7-0.9c-1,0-1.6,0.4-2,1.2c-0.2,0.4-0.3,0.9-0.3,1.5v8h-3.5v-8c0-0.8-0.1-1.4-0.2-1.7
					c-0.3-0.7-0.9-1-1.7-1c-1,0-1.7,0.3-2,1c-0.2,0.4-0.3,0.9-0.3,1.7V39h-3.6V25.6h3.4v2c0.4-0.7,0.8-1.2,1.2-1.5
					c0.7-0.5,1.6-0.8,2.7-0.8c1,0,1.9,0.2,2.5,0.7c0.5,0.4,0.9,1,1.2,1.6c0.5-0.8,1-1.4,1.7-1.7c0.7-0.4,1.5-0.6,2.4-0.6
					C82.2,25.3,82.8,25.4,83.4,25.6z"/>
				<path class="st2" d="M100.2,37.4c-1.1,1.4-2.9,2.1-5.2,2.1c-2.3,0-4-0.7-5.2-2.1c-1.1-1.4-1.7-3.1-1.7-5.1c0-1.9,0.6-3.6,1.7-5
					c1.1-1.4,2.9-2.1,5.2-2.1c2.3,0,4,0.7,5.2,2.1c1.1,1.4,1.7,3.1,1.7,5C101.9,34.3,101.3,36,100.2,37.4z M97.4,35.5
					c0.6-0.7,0.8-1.8,0.8-3.1c0-1.3-0.3-2.4-0.8-3.1c-0.6-0.7-1.3-1.1-2.4-1.1c-1,0-1.8,0.4-2.4,1.1c-0.6,0.7-0.8,1.8-0.8,3.1
					c0,1.3,0.3,2.4,0.8,3.1c0.6,0.7,1.3,1.1,2.4,1.1C96,36.6,96.8,36.2,97.4,35.5z"/>
				<path class="st2" d="M102.8,28.2v-2.5h1.9V22h3.5v3.8h2.2v2.5h-2.2v7.1c0,0.6,0.1,0.9,0.2,1c0.1,0.1,0.6,0.2,1.3,0.2
					c0.1,0,0.2,0,0.3,0c0.1,0,0.2,0,0.4,0v2.6l-1.7,0.1c-1.7,0.1-2.8-0.2-3.4-0.9c-0.4-0.4-0.6-1-0.6-1.9v-8.3H102.8z"/>
				<path class="st2" d="M118.1,30.9c0.7-0.1,1.1-0.2,1.4-0.3c0.5-0.2,0.8-0.5,0.8-1c0-0.6-0.2-0.9-0.6-1.1c-0.4-0.2-1-0.3-1.7-0.3
					c-0.8,0-1.4,0.2-1.8,0.6c-0.3,0.3-0.4,0.7-0.5,1.2h-3.4c0.1-1.2,0.4-2.1,1-2.9c0.9-1.2,2.5-1.8,4.8-1.8c1.5,0,2.8,0.3,3.9,0.9
					c1.1,0.6,1.7,1.7,1.7,3.3v6.2c0,0.4,0,0.9,0,1.6c0,0.5,0.1,0.8,0.2,0.9c0.1,0.2,0.3,0.3,0.5,0.4V39h-3.8
					c-0.1-0.3-0.2-0.5-0.2-0.8c0-0.2-0.1-0.5-0.1-0.8c-0.5,0.5-1.1,1-1.7,1.3c-0.8,0.4-1.6,0.7-2.6,0.7c-1.2,0-2.2-0.3-3-1
					c-0.8-0.7-1.2-1.7-1.2-3c0-1.7,0.6-2.9,1.9-3.6c0.7-0.4,1.7-0.7,3.1-0.9L118.1,30.9z M120.2,32.5c-0.2,0.1-0.5,0.3-0.7,0.3
					c-0.2,0.1-0.5,0.2-0.9,0.2l-0.8,0.1c-0.8,0.1-1.3,0.3-1.6,0.5c-0.6,0.3-0.8,0.8-0.8,1.5c0,0.6,0.2,1,0.5,1.3
					c0.3,0.3,0.8,0.4,1.2,0.4c0.8,0,1.5-0.2,2.1-0.7c0.6-0.4,1-1.3,1-2.4V32.5z"/>
				<path class="st2" d="M134.2,25.3c0,0,0.1,0,0.3,0v3.6c-0.2,0-0.4,0-0.6,0c-0.2,0-0.3,0-0.4,0c-1.4,0-2.4,0.5-2.9,1.4
					c-0.3,0.5-0.4,1.3-0.4,2.4V39h-3.5V25.6h3.4v2.3c0.5-0.9,1-1.5,1.4-1.8c0.7-0.6,1.5-0.8,2.6-0.8
					C134.1,25.3,134.2,25.3,134.2,25.3z"/>
				<path class="st2" d="M143.7,25.8c0.6,0.4,1.1,0.9,1.5,1.5v-6.4h3.6V39h-3.4v-1.9c-0.5,0.8-1.1,1.4-1.7,1.7
					c-0.6,0.4-1.4,0.5-2.4,0.5c-1.6,0-2.9-0.6-4-1.9c-1.1-1.3-1.6-2.9-1.6-4.9c0-2.3,0.5-4.1,1.6-5.4c1.1-1.3,2.5-2,4.2-2
					C142.3,25.3,143,25.4,143.7,25.8z M144.5,35.4c0.5-0.7,0.8-1.7,0.8-2.9c0-1.6-0.4-2.8-1.2-3.5c-0.5-0.4-1.1-0.6-1.8-0.6
					c-1,0-1.8,0.4-2.3,1.2c-0.5,0.8-0.7,1.7-0.7,2.9c0,1.2,0.2,2.2,0.7,3c0.5,0.7,1.2,1.1,2.2,1.1C143.2,36.5,144,36.1,144.5,35.4z"
					/>
				<path class="st2" d="M154.6,34.7c0.1,0.6,0.2,1.1,0.5,1.3c0.4,0.5,1.2,0.7,2.4,0.7c0.7,0,1.2-0.1,1.7-0.3
					c0.4-0.2,0.6-0.5,0.6-0.9c0-0.4-0.2-0.7-0.5-0.9c-0.3-0.2-1.6-0.6-3.7-1.1c-1.5-0.4-2.6-0.9-3.2-1.4c-0.6-0.6-0.9-1.4-0.9-2.4
					c0-1.2,0.5-2.3,1.5-3.2c1-0.9,2.4-1.3,4.1-1.3c1.7,0,3.1,0.3,4.1,1c1.1,0.7,1.7,1.8,1.8,3.5h-3.5c0-0.5-0.2-0.8-0.4-1.1
					c-0.4-0.5-1-0.7-2-0.7c-0.8,0-1.3,0.1-1.6,0.4c-0.3,0.2-0.5,0.5-0.5,0.8c0,0.4,0.2,0.7,0.5,0.9c0.3,0.2,1.6,0.5,3.7,1
					c1.4,0.3,2.5,0.8,3.2,1.5c0.7,0.7,1,1.5,1,2.5c0,1.3-0.5,2.4-1.5,3.3c-1,0.8-2.5,1.3-4.6,1.3c-2.1,0-3.7-0.4-4.7-1.3
					c-1-0.9-1.5-2-1.5-3.4H154.6z"/>
			</g>
			<g>
				<path class="st2" d="M76.8,9.8c0.3,0.1,0.7,0.4,1,0.7c0.2,0.3,0.4,0.6,0.5,1c0.1,0.3,0.1,0.7,0.1,1.2l0,5.2H76v-5.2
					c0-0.3,0-0.6-0.1-0.8c-0.2-0.4-0.5-0.6-1-0.6c-0.6,0-1,0.2-1.2,0.7c-0.1,0.3-0.2,0.6-0.2,0.9v4.9h-2.2v-4.9
					c0-0.5-0.1-0.8-0.2-1.1c-0.2-0.4-0.5-0.6-1.1-0.6c-0.6,0-1,0.2-1.2,0.6c-0.1,0.2-0.2,0.6-0.2,1v4.9h-2.2V9.8h2.1V11
					c0.3-0.4,0.5-0.7,0.7-0.9c0.4-0.3,1-0.5,1.6-0.5c0.6,0,1.1,0.1,1.5,0.4c0.3,0.3,0.5,0.6,0.7,1c0.3-0.5,0.6-0.8,1-1.1
					c0.4-0.2,0.9-0.3,1.5-0.3C76,9.6,76.4,9.6,76.8,9.8z"/>
				<path class="st2" d="M82.6,9.7v4.9c0,0.5,0.1,0.8,0.2,1c0.2,0.4,0.6,0.6,1.1,0.6c0.7,0,1.2-0.3,1.5-0.9c0.1-0.3,0.2-0.7,0.2-1.3
					V9.7h2.2v8.2h-2.1v-1.2c0,0-0.1,0.1-0.1,0.2c-0.1,0.1-0.2,0.2-0.3,0.3c-0.3,0.3-0.7,0.5-1,0.6c-0.3,0.1-0.7,0.2-1.1,0.2
					c-1.2,0-2-0.4-2.4-1.3c-0.2-0.5-0.4-1.2-0.4-2.1V9.7H82.6z"/>
				<path class="st2" d="M89.4,11.3V9.8h1.1V7.5h2.1v2.3H94v1.5h-1.3v4.3c0,0.3,0,0.5,0.1,0.6c0.1,0.1,0.3,0.1,0.8,0.1
					c0.1,0,0.1,0,0.2,0c0.1,0,0.1,0,0.2,0V18l-1,0c-1,0-1.7-0.1-2.1-0.5c-0.2-0.2-0.4-0.6-0.4-1.1v-5H89.4z"/>
				<path class="st2" d="M97.8,9.7v4.9c0,0.5,0.1,0.8,0.2,1c0.2,0.4,0.6,0.6,1.1,0.6c0.7,0,1.2-0.3,1.5-0.9c0.1-0.3,0.2-0.7,0.2-1.3
					V9.7h2.2v8.2h-2.1v-1.2c0,0-0.1,0.1-0.1,0.2c-0.1,0.1-0.2,0.2-0.3,0.3c-0.3,0.3-0.7,0.5-1,0.6c-0.3,0.1-0.7,0.2-1.1,0.2
					c-1.2,0-2-0.4-2.4-1.3c-0.2-0.5-0.4-1.2-0.4-2.1V9.7H97.8z"/>
				<path class="st2" d="M110.8,9.9c0.6,0.3,1,0.7,1.4,1.2c0.3,0.5,0.6,1,0.7,1.7c0.1,0.4,0.1,0.9,0.1,1.6h-6c0,0.8,0.3,1.4,0.9,1.7
					c0.3,0.2,0.7,0.3,1.2,0.3c0.5,0,0.9-0.1,1.2-0.4c0.2-0.1,0.3-0.3,0.4-0.6h2.2c-0.1,0.5-0.3,1-0.8,1.5c-0.7,0.8-1.8,1.2-3.1,1.2
					c-1.1,0-2-0.3-2.9-1c-0.8-0.7-1.2-1.8-1.2-3.3c0-1.4,0.4-2.5,1.1-3.3c0.8-0.8,1.7-1.1,2.9-1.1C109.6,9.5,110.2,9.7,110.8,9.9z
					 M107.6,11.8c-0.3,0.3-0.5,0.7-0.6,1.3h3.7c0-0.6-0.2-1-0.6-1.3c-0.3-0.3-0.8-0.4-1.3-0.4C108.3,11.3,107.9,11.4,107.6,11.8z"/>
				<path class="st2" d="M116.8,17.9h-2.1V6.9h2.1V17.9z"/>
				<path class="st2" d="M121.3,17.9h-2.1V6.9h2.1V17.9z"/>
				<path class="st2" d="M129.1,9.9c0.6,0.3,1,0.7,1.4,1.2c0.3,0.5,0.6,1,0.7,1.7c0.1,0.4,0.1,0.9,0.1,1.6h-6c0,0.8,0.3,1.4,0.9,1.7
					c0.3,0.2,0.7,0.3,1.2,0.3c0.5,0,0.9-0.1,1.2-0.4c0.2-0.1,0.3-0.3,0.4-0.6h2.2c-0.1,0.5-0.3,1-0.8,1.5c-0.7,0.8-1.8,1.2-3.1,1.2
					c-1.1,0-2-0.3-2.9-1c-0.8-0.7-1.2-1.8-1.2-3.3c0-1.4,0.4-2.5,1.1-3.3c0.8-0.8,1.7-1.1,2.9-1.1C127.9,9.5,128.6,9.7,129.1,9.9z
					 M125.9,11.8c-0.3,0.3-0.5,0.7-0.6,1.3h3.7c0-0.6-0.2-1-0.6-1.3c-0.3-0.3-0.8-0.4-1.3-0.4C126.7,11.3,126.3,11.4,125.9,11.8z"/>
				<path class="st2" d="M141.7,9.9c0.4,0.2,0.7,0.5,0.9,0.9V6.9h2.2v11h-2.1v-1.1c-0.3,0.5-0.7,0.8-1,1.1c-0.4,0.2-0.9,0.3-1.5,0.3
					c-1,0-1.8-0.4-2.4-1.2c-0.7-0.8-1-1.8-1-3c0-1.4,0.3-2.5,1-3.3c0.6-0.8,1.5-1.2,2.6-1.2C140.9,9.5,141.3,9.7,141.7,9.9z
					 M142.3,15.7c0.3-0.4,0.5-1,0.5-1.7c0-1-0.3-1.7-0.8-2.1c-0.3-0.3-0.7-0.4-1.1-0.4c-0.6,0-1.1,0.2-1.4,0.7
					c-0.3,0.5-0.4,1.1-0.4,1.8c0,0.8,0.1,1.4,0.4,1.8s0.7,0.7,1.4,0.7C141.5,16.4,141.9,16.1,142.3,15.7z"/>
				<path class="st2" d="M152.6,9.9c0.6,0.3,1,0.7,1.4,1.2c0.3,0.5,0.6,1,0.7,1.7c0.1,0.4,0.1,0.9,0.1,1.6h-6c0,0.8,0.3,1.4,0.9,1.7
					c0.3,0.2,0.7,0.3,1.2,0.3c0.5,0,0.9-0.1,1.2-0.4c0.2-0.1,0.3-0.3,0.4-0.6h2.2c-0.1,0.5-0.3,1-0.8,1.5c-0.7,0.8-1.8,1.2-3.1,1.2
					c-1.1,0-2-0.3-2.9-1c-0.8-0.7-1.2-1.8-1.2-3.3c0-1.4,0.4-2.5,1.1-3.3c0.8-0.8,1.7-1.1,2.9-1.1C151.4,9.5,152,9.7,152.6,9.9z
					 M149.4,11.8c-0.3,0.3-0.5,0.7-0.6,1.3h3.7c0-0.6-0.2-1-0.6-1.3c-0.3-0.3-0.8-0.4-1.3-0.4C150.1,11.3,149.7,11.4,149.4,11.8z"/>
				<path class="st2" d="M158.1,15.3c0,0.4,0.1,0.6,0.3,0.8c0.3,0.3,0.8,0.4,1.5,0.4c0.4,0,0.8-0.1,1-0.2c0.2-0.1,0.4-0.3,0.4-0.6
					c0-0.2-0.1-0.4-0.3-0.5c-0.2-0.1-0.9-0.3-2.2-0.6c-0.9-0.2-1.6-0.5-2-0.9c-0.4-0.3-0.6-0.8-0.6-1.5c0-0.8,0.3-1.4,0.9-1.9
					c0.6-0.5,1.4-0.8,2.5-0.8c1,0,1.9,0.2,2.5,0.6c0.6,0.4,1,1.1,1.1,2.1H161c0-0.3-0.1-0.5-0.2-0.7c-0.2-0.3-0.6-0.4-1.2-0.4
					c-0.5,0-0.8,0.1-1,0.2c-0.2,0.1-0.3,0.3-0.3,0.5c0,0.2,0.1,0.4,0.3,0.5c0.2,0.1,1,0.3,2.2,0.6c0.9,0.2,1.5,0.5,1.9,0.9
					c0.4,0.4,0.6,0.9,0.6,1.5c0,0.8-0.3,1.5-0.9,2c-0.6,0.5-1.5,0.8-2.8,0.8c-1.3,0-2.2-0.3-2.9-0.8c-0.6-0.5-0.9-1.2-0.9-2.1H158.1
					z"/>
			</g>
		</g>
	</g>
	<g>
		<path class="st0" d="M0.9,53.8v8.1h2.8v0.8H0v-8.9H0.9z"/>
		<path class="st0" d="M12.6,53.8v8.9h-0.9v-8.9H12.6z"/>
		<path class="st0" d="M21.1,53.8h2.3c1.3,0,2.1,0.9,2.1,2.2c0,0.9-0.4,1.7-1.3,2v0c1.1,0.3,1.5,1.1,1.5,2.2c0,1.7-0.9,2.5-2.8,2.5
			h-1.8V53.8z M22.1,57.6h0.5c1.4,0,2-0.4,2-1.6c0-1-0.4-1.4-1.5-1.4h-0.9V57.6z M22.1,61.9H23c1.1,0,1.7-0.5,1.7-1.7
			c0-1.2-0.5-1.8-1.7-1.8h-0.9V61.9z"/>
		<path class="st0" d="M37.9,53.8v0.8h-3v3h2.2v0.8h-2.2v3.4h3.2v0.8h-4.1v-8.9H37.9z"/>
		<path class="st0" d="M46.1,53.8h2.1c1.4,0,2.4,0.8,2.4,2.3c0,1-0.4,1.8-1.4,2.2l1.5,4.4h-1l-1.4-4.2l-1.2,0v4.2h-0.9V53.8z
			 M47.1,57.7h0.8c1.4,0,1.8-0.5,1.8-1.5c0-1-0.4-1.5-1.8-1.5h-0.8V57.7z"/>
		<path class="st0" d="M62.8,53.8v0.8H61v8.1h-0.9v-8.1h-1.8v-0.8H62.8z"/>
		<path class="st0" d="M74.7,53.8v0.8h-3v3h2.2v0.8h-2.2v3.4h3.2v0.8h-4.1v-8.9H74.7z M72.5,53.4h-0.6l1.2-1.7h0.9L72.5,53.4z"/>
		<path class="st0" d="M94.9,53.8l1.9,8.9h-0.9l-0.5-2.6h-2.2l-0.5,2.6h-0.9l1.9-8.9H94.9z M93.3,59.3h2l-1-4.8h0L93.3,59.3z"/>
		<path class="st0" d="M107.8,56.1c-0.1-0.9-0.4-1.6-1.3-1.6c-0.7,0-1.2,0.5-1.2,1.2c0,2,3.5,2,3.5,4.9c0,1.4-0.8,2.3-2.2,2.3
			c-1.4,0-2.2-1-2.2-2.5h0.9c0,1,0.5,1.7,1.4,1.7c0.8,0,1.3-0.5,1.3-1.5c0-2-3.5-2.3-3.5-4.8c0-1.3,0.8-2.1,2.1-2.1s2.1,0.9,2.2,2.4
			H107.8z"/>
		<path class="st0" d="M120.2,56.1c-0.1-0.9-0.4-1.6-1.3-1.6c-0.7,0-1.2,0.5-1.2,1.2c0,2,3.5,2,3.5,4.9c0,1.4-0.8,2.3-2.2,2.3
			c-1.4,0-2.2-1-2.2-2.5h0.9c0,1,0.5,1.7,1.4,1.7c0.8,0,1.3-0.5,1.3-1.5c0-2-3.5-2.3-3.5-4.8c0-1.3,0.8-2.1,2.1-2.1s2.1,0.9,2.2,2.4
			H120.2z"/>
		<path class="st0" d="M130.2,53.8v6.5c0,0.9,0.3,1.7,1.3,1.7c1,0,1.3-0.8,1.3-1.7v-6.5h0.9v6.6c0,1.4-0.7,2.5-2.2,2.5
			c-1.6,0-2.2-1-2.2-2.5v-6.6H130.2z"/>
		<path class="st0" d="M142.1,53.8h2.1c1.4,0,2.4,0.8,2.4,2.3c0,1-0.4,1.8-1.4,2.2l1.5,4.4h-1l-1.4-4.2l-1.2,0v4.2h-0.9V53.8z
			 M143.1,57.7h0.8c1.4,0,1.8-0.5,1.8-1.5c0-1-0.4-1.5-1.8-1.5h-0.8V57.7z"/>
		<path class="st0" d="M158.9,53.8v0.8h-3v3h2.2v0.8h-2.2v3.4h3.2v0.8h-4.1v-8.9H158.9z M156.8,53.4h-0.6l1.2-1.7h0.9L156.8,53.4z"
			/>
		<path class="st0" d="M171.1,53.8v0.8h-3v3h2.2v0.8H168v3.4h3.2v0.8h-4.1v-8.9H171.1z"/>
	</g>
</g>
</svg>
