<?xml version="1.0" encoding="utf-8"?>
<!-- Generator: Adobe Illustrator 25.4.1, SVG Export Plug-In . SVG Version: 6.00 Build 0)  -->
<svg version="1.1" id="Calque_1" xmlns="http://www.w3.org/2000/svg" xmlns:xlink="http://www.w3.org/1999/xlink" x="0px" y="0px"
	 viewBox="0 0 1020 550" style="enable-background:new 0 0 1020 550;" xml:space="preserve">
<style type="text/css">
	.st0{fill:#00919B;}
	.st1{fill:#7AE0E5;}
</style>
<g>
	<path class="st0" d="M284.7,83.8C175,83.8,85.9,172.7,85.9,282.6c0,109.8,89,198.8,198.8,198.8s198.8-89,198.8-198.8
		S394.6,83.8,284.7,83.8z M253.3,353.5c-4.3,2.4-9.1,3.6-13.7,3.6c-9.9,0-19.5-5.3-24.7-14.4l-46.1-92.8
		c-7.6-13.6-2.7-30.8,10.9-38.4c13.6-7.6,30.8-2.7,38.4,10.9l46.1,92.8C271.7,328.8,266.8,346,253.3,353.5z M344.4,353.5
		c-4.3,2.4-9.1,3.6-13.7,3.6c-9.9,0-19.5-5.3-24.7-14.4l-46-92.9c-7.6-13.6-2.7-30.8,10.9-38.4c13.6-7.6,30.8-2.7,38.4,10.9
		l46.1,92.8C362.8,328.8,357.9,346,344.4,353.5z"/>
	<path class="st0" d="M695.3,255.7h-26.5c-1.1,0-2.1,0.8-2.4,1.9l-17.5,59.9c-0.7,2.4-4.1,2.5-4.9,0.1l-19.1-59.9
		c-0.3-1-1.3-1.8-2.4-1.8h-19.1c-1.1,0-2,0.8-2.4,1.8l-19,59.9c-0.8,2.4-4.1,2.4-4.9,0l-17.7-59.9c-0.2-1-1.3-1.8-2.4-1.8h-26.3
		c-1.7,0-3,1.7-2.4,3.4l34.4,103.8c0.3,1,1.3,1.8,2.4,1.8H591c1.1,0,2-0.8,2.4-1.8l17.3-52.7c0.8-2.3,4.1-2.3,4.9,0l17.4,52.7
		c0.3,1,1.3,1.7,2.2,1.7h25.9c1.1,0,2-0.8,2.4-1.8l34.2-103.9C698.3,257.4,697.1,255.7,695.3,255.7z"/>
	<path class="st0" d="M741.9,256h-24.8c-1.4,0-2.5,1.1-2.5,2.5v103.7c0,1.4,1.2,2.6,2.5,2.6h24.8c1.4,0,2.5-1.1,2.5-2.5V258.5
		C744.4,257.1,743.3,256,741.9,256z"/>
	<path class="st0" d="M856.5,337.7h-44.6c-2.2,0-3.3-2.5-1.9-4.2l46.5-53.4c0.5-0.5,0.7-1,0.7-1.7v-20c0-1.4-1.1-2.5-2.5-2.5h-83.8
		c-1.4,0-2.5,1.1-2.5,2.5v21.9c0,1.4,1.1,2.5,2.5,2.5H813c2.3,0,3.4,2.5,2,4.2l-46.6,53.7c-0.5,0.5-0.7,1-0.7,1.7v19.8
		c0,1.4,1.2,2.6,2.7,2.4h86.1c1.4,0,2.5-1.1,2.5-2.5v-21.9C859,338.8,857.9,337.7,856.5,337.7z"/>
	<path class="st0" d="M908.9,256h-24.8c-1.4,0-2.5,1.1-2.5,2.5v103.7c0,1.4,1.2,2.6,2.5,2.6h24.8c1.4,0,2.5-1.1,2.5-2.5V258.5
		C911.4,257.1,910.3,256,908.9,256z"/>
</g>
<g>
	<circle class="st1" cx="375.9" cy="236.3" r="28.3"/>
	<circle class="st1" cx="729.6" cy="219.3" r="19"/>
	<circle class="st1" cx="896.8" cy="219.3" r="19"/>
</g>
</svg>
